<svg width="22" height="20" viewBox="0 0 22 20" fill="none" xmlns="http://www.w3.org/2000/svg">
    <path d="M16.586 9.50797L7.13709 2.63101C7.1124 2.6129 7.08273 2.60164 7.05148 2.59854C7.02023 2.59543 6.98868 2.6006 6.96044 2.61345C6.93221 2.6263 6.90843 2.64631 6.89185 2.67118C6.87527 2.69605 6.86655 2.72478 6.8667 2.75406V4.26382C6.8667 4.35953 6.91491 4.45132 6.99456 4.50992L14.5403 10.0002L6.99456 15.4904C6.91281 15.549 6.8667 15.6408 6.8667 15.7365V17.2462C6.8667 17.3771 7.0281 17.4494 7.13709 17.3693L16.586 10.4923C16.6663 10.434 16.7313 10.3593 16.776 10.274C16.8206 10.1887 16.8439 10.0951 16.8439 10.0002C16.8439 9.90524 16.8206 9.81158 16.776 9.7263C16.7313 9.64101 16.6663 9.56634 16.586 9.50797Z" fill="#262626" />
</svg>
    