<svg width="22" height="20" viewBox="0 0 22 20" fill="none" xmlns="http://www.w3.org/2000/svg">
    <path d="M20.6328 4.6464C20.3187 3.91899 19.8657 3.25981 19.2992 2.70578C18.7323 2.15009 18.064 1.70849 17.3305 1.405C16.5699 1.08904 15.7541 0.92732 14.9305 0.929216C13.775 0.929216 12.6477 1.24562 11.668 1.84328C11.4336 1.98625 11.2109 2.14328 11 2.31437C10.7891 2.14328 10.5664 1.98625 10.332 1.84328C9.35234 1.24562 8.225 0.929216 7.06953 0.929216C6.2375 0.929216 5.43125 1.08859 4.66953 1.405C3.93359 1.70968 3.27031 2.14797 2.70078 2.70578C2.13359 3.25919 1.6805 3.91852 1.36719 4.6464C1.04141 5.40343 0.875 6.20734 0.875 7.03468C0.875 7.81515 1.03438 8.62843 1.35078 9.45578C1.61563 10.1472 1.99531 10.8644 2.48047 11.5886C3.24922 12.7347 4.30625 13.93 5.61875 15.1417C7.79375 17.1503 9.94766 18.5378 10.0391 18.5941L10.5945 18.9503C10.8406 19.1073 11.157 19.1073 11.4031 18.9503L11.9586 18.5941C12.05 18.5355 14.2016 17.1503 16.3789 15.1417C17.6914 13.93 18.7484 12.7347 19.5172 11.5886C20.0023 10.8644 20.3844 10.1472 20.6469 9.45578C20.9633 8.62843 21.1227 7.81515 21.1227 7.03468C21.125 6.20734 20.9586 5.40343 20.6328 4.6464Z" fill="#00DAF9" />
</svg>
    