<svg width="26" height="24" viewBox="0 0 26 24" fill="none" xmlns="http://www.w3.org/2000/svg">
    <path d="M23.4599 6.6464C23.1227 5.91899 22.6366 5.25981 22.0287 4.70578C21.4203 4.15009 20.7031 3.70849 19.9159 3.405C19.0996 3.08904 18.2241 2.92732 17.3403 2.92922C16.1002 2.92922 14.8904 3.24562 13.839 3.84328C13.5875 3.98625 13.3486 4.14328 13.1222 4.31437C12.8958 4.14328 12.6569 3.98625 12.4054 3.84328C11.354 3.24562 10.1442 2.92922 8.90414 2.92922C8.01123 2.92922 7.14598 3.08859 6.32853 3.405C5.53874 3.70968 4.82693 4.14797 4.21572 4.70578C3.60703 5.25919 3.12078 5.91852 2.78455 6.6464C2.43493 7.40343 2.25635 8.20734 2.25635 9.03468C2.25635 9.81515 2.42738 10.6284 2.76694 11.4558C3.05116 12.1472 3.45863 12.8644 3.97929 13.5886C4.80429 14.7347 5.93866 15.93 7.3472 17.1417C9.68135 19.1503 11.9929 20.5378 12.091 20.5941L12.6871 20.9503C12.9512 21.1073 13.2907 21.1073 13.5548 20.9503L14.1509 20.5941C14.249 20.5355 16.558 19.1503 18.8947 17.1417C20.3032 15.93 21.4376 14.7347 22.2626 13.5886C22.7833 12.8644 23.1932 12.1472 23.4749 11.4558C23.8145 10.6284 23.9855 9.81515 23.9855 9.03468C23.9881 8.20734 23.8095 7.40343 23.4599 6.6464ZM13.1222 19.0964C13.1222 19.0964 4.16793 13.7503 4.16793 9.03468C4.16793 6.6464 6.28828 4.71047 8.90414 4.71047C10.7428 4.71047 12.3374 5.66672 13.1222 7.06359C13.907 5.66672 15.5016 4.71047 17.3403 4.71047C19.9561 4.71047 22.0765 6.6464 22.0765 9.03468C22.0765 13.7503 13.1222 19.0964 13.1222 19.0964Z" fill="#00DAF9" />
</svg>
    