<svg width="80" height="80" viewBox="0 0 80 80" fill="none" xmlns="http://www.w3.org/2000/svg">
    <rect width="80" height="80" rx="10" fill="url(#paint0_linear_22_78)" />
    <path d="M58.7889 51.6006H50.1486C49.6847 51.6006 49.2399 51.4187 48.9119 51.0948C48.5838 50.771 48.3996 50.3318 48.3996 49.8738C48.3996 49.4158 48.5838 48.9766 48.9119 48.6527C49.2399 48.3289 49.6847 48.147 50.1486 48.147H58.7889C60.8763 48.147 62.8783 47.3283 64.3543 45.871C65.8304 44.4137 66.6596 42.4372 66.6596 40.3763C66.6596 38.3154 65.8304 36.3389 64.3543 34.8816C62.8783 33.4243 60.8763 32.6057 58.7889 32.6057H50.0437C49.5798 32.6057 49.1349 32.4237 48.8069 32.0999C48.4789 31.776 48.2946 31.3368 48.2946 30.8788C48.2946 30.4209 48.4789 29.9817 48.8069 29.6578C49.1349 29.334 49.5798 29.152 50.0437 29.152H58.7889C60.3349 29.0673 61.8822 29.2948 63.3361 29.8206C64.79 30.3465 66.1201 31.1595 67.2449 32.2101C68.3697 33.2607 69.2656 34.5267 69.8779 35.9308C70.4902 37.3349 70.8061 38.8476 70.8061 40.3763C70.8061 41.905 70.4902 43.4177 69.8779 44.8218C69.2656 46.2259 68.3697 47.4919 67.2449 48.5425C66.1201 49.5931 64.79 50.4062 63.3361 50.932C61.8822 51.4578 60.3349 51.6853 58.7889 51.6006Z" fill="white" />
    <path d="M29.4574 50.4091H20.8172C19.2711 50.4938 17.7239 50.2662 16.2699 49.7404C14.816 49.2146 13.486 48.4016 12.3612 47.351C11.2364 46.3004 10.3404 45.0344 9.72811 43.6303C9.1158 42.2262 8.79999 40.7135 8.79999 39.1848C8.79999 37.6561 9.1158 36.1434 9.72811 34.7393C10.3404 33.3352 11.2364 32.0692 12.3612 31.0186C13.486 29.968 14.816 29.1549 16.2699 28.6291C17.7239 28.1033 19.2711 27.8758 20.8172 27.9605H30.7867C31.2506 27.9605 31.6955 28.1424 32.0235 28.4663C32.3515 28.7901 32.5358 29.2293 32.5358 29.6873C32.5358 30.1453 32.3515 30.5845 32.0235 30.9084C31.6955 31.2322 31.2506 31.4141 30.7867 31.4141H20.8172C18.7297 31.4141 16.7278 32.2328 15.2517 33.6901C13.7757 35.1474 12.9464 37.1239 12.9464 39.1848C12.9464 41.2457 13.7757 43.2222 15.2517 44.6795C16.7278 46.1367 18.7297 46.9554 20.8172 46.9554H29.4574C29.9213 46.9554 30.3662 47.1374 30.6942 47.4612C31.0222 47.785 31.2065 48.2243 31.2065 48.6823C31.2065 49.1402 31.0222 49.5794 30.6942 49.9033C30.3662 50.2271 29.9213 50.4091 29.4574 50.4091Z" fill="white" />
    <path d="M40.4065 49.3212H39.6718C36.7766 49.1322 34.0631 47.8608 32.0841 45.7658C30.1051 43.6708 29.0094 40.9098 29.0202 38.0451V21.0187C29.1814 18.1495 30.4495 15.4502 32.5639 13.4754C34.6782 11.5005 37.4783 10.4 40.389 10.4C43.2996 10.4 46.0997 11.5005 48.2141 13.4754C50.3284 15.4502 51.5965 18.1495 51.7578 21.0187V38.0451C51.757 39.9471 51.2697 41.8181 50.341 43.4845C50.2262 43.6841 50.0726 43.8594 49.8892 44.0003C49.7057 44.1413 49.496 44.2452 49.2718 44.3062C49.0477 44.3671 48.8136 44.3839 48.5829 44.3555C48.3522 44.3271 48.1295 44.2541 47.9273 44.1407C47.7252 44.0273 47.5477 43.8758 47.4049 43.6946C47.2621 43.5135 47.1568 43.3064 47.0951 43.0851C47.0334 42.8638 47.0164 42.6327 47.0452 42.405C47.0739 42.1772 47.1479 41.9573 47.2627 41.7577C47.9087 40.6237 48.2518 39.3461 48.2597 38.0451V21.0187C48.2597 18.9578 47.4304 16.9813 45.9544 15.524C44.4783 14.0668 42.4764 13.2481 40.389 13.2481C38.3015 13.2481 36.2996 14.0668 34.8235 15.524C33.3475 16.9813 32.5183 18.9578 32.5183 21.0187V38.0451C32.5182 40.0117 33.2752 41.9049 34.6359 43.3413C35.9965 44.7776 37.8592 45.6498 39.8468 45.7812H40.3715C40.8353 45.7812 41.2802 45.9631 41.6082 46.287C41.9362 46.6108 42.1205 47.05 42.1205 47.508C42.1205 47.966 41.9362 48.4052 41.6082 48.729C41.2802 49.0529 40.8353 49.2348 40.3715 49.2348L40.4065 49.3212Z" fill="white" />
    <path d="M39.1996 69.7494C36.1858 69.7448 33.2968 68.5608 31.1658 66.4568C29.0347 64.3528 27.8354 61.5006 27.8308 58.5251V41.4987C27.8316 39.5967 28.3189 37.7257 29.2475 36.0593C29.4795 35.6563 29.8641 35.3607 30.3167 35.2377C30.7694 35.1146 31.253 35.1741 31.6612 35.4031C32.0694 35.6321 32.3688 36.0118 32.4934 36.4587C32.6181 36.9056 32.5578 37.3831 32.3259 37.7861C31.6936 38.9247 31.3571 40.2003 31.3464 41.4987V58.5596C31.3464 60.6205 32.1756 62.597 33.6517 64.0543C35.1277 65.5116 37.1297 66.3303 39.2171 66.3303C41.3045 66.3303 43.3065 65.5116 44.7825 64.0543C46.2586 62.597 47.0878 60.6205 47.0878 58.5596V41.4987C47.0924 40.4747 46.8916 39.46 46.4968 38.513C46.102 37.5661 45.5211 36.7057 44.7877 35.9817C44.0543 35.2576 43.1829 34.6841 42.2238 34.2943C41.2646 33.9046 40.2368 33.7063 39.1996 33.7108C38.7357 33.7108 38.2909 33.5289 37.9628 33.205C37.6348 32.8812 37.4506 32.442 37.4506 31.984C37.4506 31.526 37.6348 31.0868 37.9628 30.763C38.2909 30.4391 38.7357 30.2572 39.1996 30.2572C42.218 30.2618 45.1115 31.4476 47.2458 33.5548C49.3802 35.662 50.5813 38.5187 50.5859 41.4987V58.5596C50.572 61.5321 49.3663 64.3781 47.2324 66.4751C45.0986 68.5721 42.2104 69.7494 39.1996 69.7494Z" fill="white" />
    <defs>
        <linearGradient id="paint0_linear_22_78" x1="40" y1="0" x2="40" y2="80" gradientUnits="userSpaceOnUse">
            <stop stop-color="#2EA0F2" />
            <stop offset="1" stop-color="#00DAF9" />
        </linearGradient>
    </defs>
</svg>
    