<svg width="70" height="70" viewBox="0 0 70 70" fill="none" xmlns="http://www.w3.org/2000/svg">
    <path d="M35 70C54.33 70 70 54.33 70 35C70 15.67 54.33 0 35 0C15.67 0 0 15.67 0 35C0 54.33 15.67 70 35 70Z" fill="#EDEDED" />
    <path d="M51.8384 35C54.5998 35 56.8384 32.7614 56.8384 30C56.8384 27.2386 54.5998 25 51.8384 25C49.077 25 46.8384 27.2386 46.8384 30C46.8384 32.7614 49.077 35 51.8384 35Z" fill="#CCCCCC" />
    <path d="M18.1516 35C20.913 35 23.1516 32.7614 23.1516 30C23.1516 27.2386 20.913 25 18.1516 25C15.3902 25 13.1516 27.2386 13.1516 30C13.1516 32.7614 15.3902 35 18.1516 35Z" fill="#CCCCCC" />
    <path d="M22.2222 50.1918C24.7171 46.8181 28.0505 44.4443 35.2323 44.4443C42.4141 44.4443 45.9191 46.909 48.2525 50.1918" stroke="#CCCCCC" stroke-width="4" stroke-linecap="round" stroke-linejoin="round" />
</svg>
    