<svg width="50" height="50" viewBox="0 0 50 50" fill="none" xmlns="http://www.w3.org/2000/svg">
    <path opacity="0.7" d="M50 25C50 38.8071 38.8071 50 25 50C11.1929 50 0 38.8071 0 25C0 11.1929 11.1929 0 25 0C38.8071 0 50 11.1929 50 25Z" fill="#707070" />
    <path d="M33.3427 25.7843L25.5638 16.8195C25.4935 16.7383 25.4066 16.6733 25.3089 16.6287C25.2113 16.5841 25.1052 16.561 24.9978 16.561C24.8904 16.561 24.7843 16.5841 24.6867 16.6287C24.589 16.6733 24.5021 16.7383 24.4318 16.8195L16.6552 25.7843C16.6317 25.8113 16.6165 25.8445 16.6113 25.88C16.6062 25.9154 16.6113 25.9516 16.6261 25.9842C16.6409 26.0168 16.6648 26.0444 16.6949 26.0639C16.725 26.0833 16.76 26.0936 16.7958 26.0937H18.6943C18.8021 26.0937 18.9052 26.0468 18.9779 25.9648L24.1083 20.0515V33.2492C24.1083 33.3523 24.1927 33.4367 24.2958 33.4367H25.7021C25.8052 33.4367 25.8896 33.3523 25.8896 33.2492V20.0515L31.0201 25.9648C31.0904 26.0468 31.1935 26.0937 31.3037 26.0937H33.2021C33.3615 26.0937 33.4482 25.9062 33.3427 25.7843Z" fill="white" />
</svg>
    